{"title":"Santiago Alvarez - De America soy hijo... y a ella me debo AKA I","uid":6097448,"size":1641229936,"categoryP":"video","categoryS":"movies","magnet":"?xt=urn:btih:752ac1e0a9f8d50f8ec618a76e5ba07b59d9874d&amp;dn=Santiago+Alvarez+-+De+America+soy+hijo...+y+a+ella+me+debo+AKA+I&amp;tr=udp%3A%2F%2Ftracker.openbittorrent.com%3A80&amp;tr=udp%3A%2F%2Fopen.demonii.com%3A1337&amp;tr=udp%3A%2F%2Ftracker.coppersurfer.tk%3A6969&amp;tr=udp%3A%2F%2Fexodus.desync.com%3A6969","seeders":2,"leechers":0,"uploader":"mfccorrea","files":3,"time":1294832300,"description":"Santiago Alvarez' account of the trip by Fidel Castro to Chile in November 1971,\nexpanded into an historical view of imperialist exploitation across Latin America.\n\nSelected among the most significant films of 1972, Annual Critics Choice, Havana, Cuba .\n\n\n   General\n      Complete name : De AmÃƒÂ©rica soy hijo... y a ella me debo.avi\n      Format : AVI\n      Format/Info : Audio Video Interleave\n      File size : 1.51 GiB\n      Duration : 2h 4mn\n      Overall bit rate : 1 729 Kbps\n      Writing application : FairUse Wizard - http://fairusewizard.com\n      Writing library : The best and REALLY easy backup tool\n   Video #0\n      ID : 0\n      Format : MPEG-4 Visual\n      Format profile : AdvancedSimple@L5\n      Format settings, BVOP : Yes\n      Format settings, QPel : No\n      Format settings, GMC : No warppoints\n      Format settings, Matrix : Default (MPEG)\n      Muxing mode : Packed bitstream\n      Codec ID : XVID\n      Codec ID/Hint : XviD\n      Duration : 2h 4mn\n      Bit rate : 1 525 Kbps\n      Width : 640 pixels\n      Height : 368 pixels\n      Display aspect ratio : 16:9\n      Frame rate : 29.970 fps\n      Resolution : 24 bits\n      Colorimetry : 4:2:0\n      Scan type : Progressive\n      Bits/(Pixel*Frame) : 0.216\n      Stream size : 1.33 GiB (88%)\n      Writing library : XviD 1.2.1 (UTC 2008-12-04)\n   Audio #1\n      ID : 1\n      Format : AC-3\n      Format/Info : Audio Coding 3\n      Codec ID : 2000\n      Duration : 2h 4mn\n      Bit rate mode : Constant\n      Bit rate : 192 Kbps\n      Channel(s) : 2 channels\n      Channel positions : L R\n      Sampling rate : 48.0 KHz\n      Stream size : 171 MiB (11%)\n      Alignment : Split accross interleaves\n      Interleave, duration : 33 ms (1.00 video frame)\n      Interleave, preload duration : 500 ms\n &lt;a href=&quot;\nhttp://www.imdb.com/title/tt0150284/&quot; rel=&quot;nofollow&quot; target=&quot;_NEW&quot;&gt;\nhttp://www.imdb.com/title/tt0150284/&lt;/a&gt;\n\nSpanish audio; Multilanguage (English, German, French, Italian, Portuguese, Spanish) subpack\n\nSantiago Alvarez - De America soy hijo... y a ella me debo AKA I Am A Son Of America... And I Am Indebted To It (1972)","torrent":{"xt":"urn:btih:752ac1e0a9f8d50f8ec618a76e5ba07b59d9874d","amp;dn":"Santiago+Alvarez+-+De+America+soy+hijo...+y+a+ella+me+debo+AKA+I","amp;tr":["udp%3A%2F%2Ftracker.openbittorrent.com%3A80","udp%3A%2F%2Fopen.demonii.com%3A1337","udp%3A%2F%2Ftracker.coppersurfer.tk%3A6969","udp%3A%2F%2Fexodus.desync.com%3A6969"],"infoHash":"752ac1e0a9f8d50f8ec618a76e5ba07b59d9874d","infoHashBuffer":{"type":"Buffer","data":[117,42,193,224,169,248,213,15,142,198,24,167,110,91,160,123,89,217,135,77]},"announce":[],"urlList":[]}}